<svg xmlns="http://www.w3.org/2000/svg" width="140" height="92" viewBox="0 0 140 92">
    <defs>
        <linearGradient id="prefix__a" x1="0%" x2="100%" y1="28.747%" y2="71.253%">
            <stop offset="0%" stop-color="#56CCBD"/>
            <stop offset="100%" stop-color="#65BFC1"/>
        </linearGradient>
        <linearGradient id="prefix__b" x1="50%" x2="50%" y1="0%" y2="100%">
            <stop offset="0%" stop-color="#56CCBD"/>
            <stop offset="100%" stop-color="#4DE6D2"/>
        </linearGradient>
        <linearGradient id="prefix__c" x1="92.243%" x2="7.757%" y1="100%" y2="0%">
            <stop offset="0%" stop-color="#9DE3E9"/>
            <stop offset="100%" stop-color="#ED83FF"/>
        </linearGradient>
    </defs>
    <g fill="none" fill-rule="evenodd" transform="translate(-1)">
        <path stroke="#D1F5F8" stroke-dasharray="3.3 4.4" stroke-width="2.2" d="M15.26 50.891V12.44c0-3.038 2.462-5.5 5.5-5.5h59.134M132.229 8.022h7.075v74.443c0 3.037-2.462 5.5-5.5 5.5H42.496h0"/>
        <g>
            <g transform="rotate(8 -381.706 64.826)">
                <rect width="32.947" height="33.109" x=".53" y=".236" fill="#D1F5F8" rx="1.735"/>
                <path fill="#F7F9FC" d="M5.346 3.767H28.66c.719 0 1.302.583 1.302 1.302v23.443c0 .718-.583 1.301-1.302 1.301H5.346c-.72 0-1.302-.583-1.302-1.301V5.069c0-.719.583-1.302 1.302-1.302z"/>
            </g>
            <path fill="#D1F5F8" d="M17.223 8.182c4.852 0 8.786 3.953 8.786 8.829 0 4.876-3.934 8.829-8.786 8.829-4.852 0-8.786-3.953-8.786-8.83l.001.065h9.034l-5.16-7.386c1.402-.952 3.092-1.507 4.911-1.507z" transform="rotate(8 -381.706 64.826)"/>
            <path fill="#D1F5F8" d="M14.93 15.63h-7c0-1.021.286-2.085.856-3.192.57-1.107 1.295-1.937 2.174-2.49l3.97 5.682z" transform="rotate(8 -381.706 64.826)"/>
        </g>
        <g>
            <path fill="url(#prefix__a)" d="M9.203 0h86.585c.958 0 1.735.777 1.735 1.735v56.978H7.468V1.735C7.468.777 8.245 0 9.203 0z" transform="translate(22.289 15.768)"/>
            <path fill="#F7F9FC" d="M11.095 3.973h82.491c.719 0 1.302.583 1.302 1.301v50.79H9.794V5.274c0-.718.583-1.3 1.301-1.3z" transform="translate(22.289 15.768)"/>
            <path fill="url(#prefix__b)" d="M1.735 58.713h101.521c.959 0 1.735.777 1.735 1.735v2.68H0v-2.68c0-.958.777-1.735 1.735-1.735z" transform="translate(22.289 15.768) matrix(1 0 0 -1 0 121.84)"/>
        </g>
        <path fill="#ED83FF" d="M83.898 15.768c10.78-.13 22.2-.277 34.265-.441.97 0 1.757.79 1.757 1.765-.028 5.653-.028 13.416 0 23.287-3.048 2.54-7.734 5.078-14.058 7.615l-10.126-5.996c-7.336-4.343-11.838-12.26-11.838-20.816-.144-1.353-.144-3.158 0-5.414z" style="mix-blend-mode:multiply" opacity=".15"/>
        <path fill="#9DE3E9" d="M39.85 54.174h69.87c.478 0 .867.389.867.868v3.12c0 .48-.389.868-.868.868H39.85c-.479 0-.867-.388-.867-.867v-3.121c0-.48.388-.868.867-.868z"/>
        <rect width="54.033" height="4.856" x="38.982" y="61.679" fill="#9DE3E9" rx=".868"/>
        <g transform="translate(38.982 24.156)">
            <rect width="39.536" height="26.046" fill="#9DE3E9" rx=".868"/>
            <g fill="#000" opacity=".1" transform="translate(12.74 5.297)">
                <ellipse cx="7.468" cy="3.973" rx="3.954" ry="3.973"/>
                <path fill-rule="nonzero" d="M14.497 15.45c-.406-3.747-3.518-6.621-7.249-6.621-3.73 0-6.843 2.874-7.248 6.622h14.497z"/>
            </g>
        </g>
        <g>
            <path fill="url(#prefix__c)" d="M0 5.768L19.618 0l19.618 5.768v12.154c0 8.195-4.338 15.778-11.402 19.933l-8.216 4.831-8.216-4.831C4.338 33.7 0 26.117 0 17.922V5.768z" transform="translate(87.626)"/>
            <path fill="#FFF" fill-opacity=".5" fill-rule="nonzero" d="M19.035 31.726c-6.454 0-11.685-5.23-11.685-11.68 0-6.452 5.231-11.682 11.685-11.682 6.453 0 11.685 5.23 11.685 11.681 0 6.451-5.232 11.681-11.685 11.681zm0-1.73c5.496 0 9.952-4.455 9.952-9.95 0-5.497-4.456-9.951-9.952-9.951-5.497 0-9.953 4.454-9.953 9.95 0 5.496 4.456 9.95 9.953 9.95z" transform="translate(87.626)"/>
            <path fill="#FFF" fill-rule="nonzero" d="M29.362 9.556L32.066 12.157 18.662 26.058 12.188 18.839 14.984 16.337 18.761 20.55z" transform="translate(87.626)"/>
        </g>
    </g>
</svg>
