<svg xmlns="http://www.w3.org/2000/svg" width="184" height="120" viewBox="0 0 184 120">
    <defs>
        <linearGradient id="prefix__a" x1="0%" x2="100%" y1="28.747%" y2="71.253%">
            <stop offset="0%" stop-color="#75A8FF"/>
            <stop offset="100%" stop-color="#4D82FF"/>
        </linearGradient>
        <linearGradient id="prefix__b" x1="50%" x2="50%" y1="0%" y2="100%">
            <stop offset="0%" stop-color="#75A8FF"/>
            <stop offset="100%" stop-color="#4D82FF"/>
        </linearGradient>
        <linearGradient id="prefix__c" x1="16.484%" x2="77.202%" y1="11.489%" y2="82.464%">
            <stop offset="0%" stop-color="#FFD486"/>
            <stop offset="100%" stop-color="#FFB32A"/>
        </linearGradient>
    </defs>
    <g fill="none" fill-rule="evenodd" transform="translate(-1)">
        <path stroke="#E0EBFE" stroke-dasharray="3.3 4.4" stroke-width="2.2" d="M20.056 66.886V14.62c0-3.038 2.462-5.5 5.5-5.5h79.447M173.787 10.543h9.298v99.568c0 3.037-2.462 5.5-5.5 5.5H55.852h0"/>
        <g>
            <g transform="rotate(8 -501.67 85.2)">
                <rect width="43.302" height="43.514" x=".696" y=".31" fill="#E0EBFE" rx="1.735"/>
                <path fill="#F7F9FC" d="M6.617 4.951h31.461c.719 0 1.301.583 1.301 1.302V37.88c0 .72-.582 1.302-1.3 1.302H6.616c-.72 0-1.302-.583-1.302-1.302V6.253c0-.719.583-1.302 1.302-1.302z"/>
            </g>
            <path fill="#E0EBFE" d="M22.636 10.753c6.377 0 11.547 5.196 11.547 11.604 0 6.409-5.17 11.604-11.547 11.604-6.377 0-11.547-5.195-11.547-11.604l.001.085h11.874l-6.781-9.706c1.842-1.253 4.062-1.983 6.453-1.983z" transform="rotate(8 -501.67 85.2)"/>
            <path fill="#E0EBFE" d="M19.622 20.542h-9.2c.001-1.342.376-2.74 1.125-4.195.75-1.455 1.702-2.546 2.858-3.273l5.217 7.468z" transform="rotate(8 -501.67 85.2)"/>
        </g>
        <g>
            <path fill="url(#prefix__a)" d="M11.55 0h114.888c.959 0 1.736.777 1.736 1.735v75.43H9.815V1.736C9.815.777 10.592 0 11.55 0z" transform="translate(29.294 20.724)"/>
            <path fill="#F7F9FC" d="M14.173 5.222h109.235c.719 0 1.301.582 1.301 1.301v67.162H12.872V6.523c0-.719.583-1.301 1.301-1.301z" transform="translate(29.294 20.724)"/>
            <path fill="url(#prefix__b)" d="M1.735 77.166h134.519c.958 0 1.735.777 1.735 1.735v4.067H0V78.9c0-.958.777-1.735 1.735-1.735z" transform="translate(29.294 20.724) matrix(1 0 0 -1 0 160.133)"/>
        </g>
        <path fill="#FF6300" d="M110.266 20.724c14.167-.17 29.178-.364 45.034-.58 1.275 0 2.309 1.038 2.309 2.32-.037 7.43-.037 17.632 0 30.606-4.006 3.338-10.165 6.674-18.475 10.008l-13.31-7.88c-9.64-5.709-15.558-16.115-15.558-27.359-.19-1.779-.19-4.15 0-7.115z" style="mix-blend-mode:multiply" opacity=".15"/>
        <path fill="#F7E08D" d="M52.1 71.2h92.375c.48 0 .868.389.868.868v4.647c0 .48-.389.868-.868.868H52.101c-.48 0-.868-.389-.868-.868v-4.647c0-.48.389-.868.868-.868z"/>
        <rect width="71.015" height="6.382" x="51.233" y="81.064" fill="#F7E08D" rx=".868"/>
        <g transform="translate(51.233 31.747)">
            <rect width="51.962" height="34.231" fill="#F7E08D" rx=".868"/>
            <g fill="#E49900" transform="translate(16.743 6.962)">
                <ellipse cx="9.815" cy="5.222" rx="5.196" ry="5.222"/>
                <path fill-rule="nonzero" d="M19.053 20.307c-.533-4.926-4.624-8.703-9.527-8.703-4.902 0-8.993 3.777-9.526 8.703h19.053z"/>
            </g>
        </g>
        <g>
            <path fill="url(#prefix__c)" d="M0 7.581L25.783 0l25.784 7.581v20.13c0 8.196-4.338 15.779-11.402 19.933l-14.382 8.458-14.381-8.458C4.338 43.49 0 35.907 0 27.712V7.582z" transform="translate(115.165)"/>
            <path fill="#FFF" fill-opacity=".5" fill-rule="nonzero" d="M25.017 41.697c-8.482 0-15.357-6.873-15.357-15.352 0-8.478 6.875-15.352 15.357-15.352s15.357 6.874 15.357 15.352c0 8.479-6.875 15.352-15.357 15.352zm0-2.274c7.224 0 13.08-5.855 13.08-13.078 0-7.223-5.856-13.078-13.08-13.078s-13.08 5.855-13.08 13.078c0 7.223 5.856 13.078 13.08 13.078z" transform="translate(115.165)"/>
            <path fill="#FFF" fill-rule="nonzero" d="M38.59 12.56L42.144 15.978 24.527 34.248 16.018 24.76 19.693 21.472 24.658 27.008z" transform="translate(115.165)"/>
        </g>
    </g>
</svg>
