<svg xmlns="http://www.w3.org/2000/svg" xmlns:xlink="http://www.w3.org/1999/xlink" width="140" height="90" viewBox="0 0 100 57">
  <defs>
    <linearGradient id="benefit-1-a" x1="87.18%" x2="12.82%" y1="100%" y2="0%">
      <stop offset="0%" stop-color="#9DE3E9"/>
      <stop offset="100%" stop-color="#ED83FF"/>
    </linearGradient>
    <linearGradient id="benefit-1-b" x1="24.469%" x2="78.887%" y1="21.327%" y2="83.872%">
      <stop offset="0%" stop-color="#75A8FF"/>
      <stop offset="100%" stop-color="#4D82FF"/>
    </linearGradient>
    <linearGradient id="benefit-1-d" x1="12.821%" x2="87.179%" y1="0%" y2="100%">
      <stop offset="0%" stop-color="#56CCBD"/>
      <stop offset="100%" stop-color="#9794CF"/>
    </linearGradient>
    <polygon id="benefit-1-c" points="19.421 0 38.594 11.117 38.594 33.351 19.421 44.468 .249 33.351 .249 11.117"/>
  </defs>
  <g fill="none" fill-rule="evenodd">
    <polygon fill="url(#benefit-1-a)" points="24.558 39.707 31.667 43.829 31.667 52.073 24.558 56.195 17.449 52.073 17.449 43.829"/>
    <polygon fill="#D1F5F8" points="90.991 1.972 99.759 7.057 99.759 17.226 90.991 22.31 82.222 17.226 82.222 7.057"/>
    <polygon fill="#D1F5F8" points="11.42 16.788 22.841 23.409 22.841 36.653 11.42 43.274 0 36.653 0 23.409"/>
    <g transform="translate(33.118 .125)">
      <polygon fill="url(#benefit-1-b)" fill-rule="nonzero" points="19.421 0 38.594 11.117 38.594 33.351 19.421 44.468 .249 33.351 .249 11.117"/>
      <mask id="benefit-1-e" fill="#fff">
        <use xlink:href="#benefit-1-c"/>
      </mask>
      <use fill="url(#benefit-1-d)" xlink:href="#benefit-1-c"/>
      <g mask="url(#benefit-1-e)">
        <path fill="#FFF" fill-rule="nonzero" d="M19.8531072,4.50093418 L19.8531072,3.68764527 L20.9795246,4.77203049 C21.261129,5.04312679 21.8243377,5.04312679 22.1528761,4.77203049 C22.2936783,4.63648234 22.3875464,4.41056875 22.3875464,4.22983788 C22.3875464,4.04910701 22.2936783,3.82319342 22.1528761,3.68764527 L19.6184369,1.20259582 C19.3368326,0.931499511 18.8205579,0.931499511 18.4920195,1.20259582 L15.769844,3.64246255 C15.6290418,3.77801071 15.5351738,3.95874158 15.5351738,4.18465516 C15.5351738,4.36538603 15.5821078,4.59129962 15.7229099,4.72684777 C16.0045143,5.04312679 16.567723,5.04312679 16.8962615,4.77203049 L18.3042833,3.55209712 L18.3042833,4.50093418 C18.3042833,7.57335897 15.7229099,10.1035911 12.4844598,10.1035911 L9.71535033,10.1035911 C5.91369152,10.1035911 2.6752414,12.9049196 2.29976892,16.5647197 L2.29976892,16.6550852 L2.2059008,16.6550852 C0.89174713,17.0165469 0,18.1912976 0,19.5015964 C0,21.1733569 1.40802179,22.4836557 3.09764793,22.4836557 C4.83420814,22.4836557 6.19529587,21.1281742 6.19529587,19.5015964 C6.19529587,18.2364803 5.35048279,17.1069123 4.08326318,16.6550852 L3.98939507,16.6099024 L3.98939507,16.519537 C4.31793348,13.7182085 6.80543864,11.5946208 9.71535033,11.5946208 L12.4375258,11.6398035 C16.567723,11.6398035 19.8531072,8.4318306 19.8531072,4.50093418 Z M4.55260378,19.5467791 C4.55260378,20.3148853 3.89552695,20.992626 3.05071388,20.992626 C2.25283486,20.992626 1.54882397,20.360068 1.54882397,19.5467791 C1.54882397,18.7786729 2.2059008,18.1009321 3.05071388,18.1009321 C3.89552695,18.1461148 4.55260378,18.7786729 4.55260378,19.5467791 Z M18.1650852,22.0181351 L16.8720023,20.7107154 L18.1650852,19.4032958 C18.3036297,19.258027 18.3959928,19.0643352 18.3959928,18.8222204 C18.3959928,18.5801057 18.3498113,18.3864139 18.1650852,18.2411451 C17.887996,17.9021844 17.3338176,17.9021844 17.0105469,18.2411451 L15.6712825,19.5969876 L14.3320181,18.2411451 C14.0087474,17.9506073 13.5007506,17.9506073 13.1774798,18.2411451 C13.0389353,18.3864139 12.9465722,18.6285286 12.9465722,18.8222204 C12.9465722,19.0159122 13.0389353,19.258027 13.1774798,19.4032958 L14.4705627,20.7107154 L13.1774798,22.0181351 C12.8542091,22.3086728 12.8542091,22.8897482 13.1774798,23.2287088 C13.454569,23.5676695 14.0087474,23.5676695 14.3320181,23.2287088 L15.6712825,21.8728663 L17.0105469,23.2287088 C17.2876361,23.5192465 17.8418144,23.5192465 18.1650852,23.2287088 C18.4883559,22.8897482 18.4883559,22.3570957 18.1650852,22.0181351 Z M9.1742563,4.04400348 L7.87569429,2.74800236 L9.1742563,1.45200125 C9.49889679,1.164001 9.49889679,0.588000505 9.1742563,0.252000217 C8.89599304,-0.0840000723 8.33946647,-0.0840000723 8.01482592,0.252000217 L6.66988674,1.59600138 L5.3713247,0.300000258 C5.0466842,0.0120000103 4.53653483,0.0120000103 4.21189433,0.300000258 C3.93363104,0.636000549 3.93363104,1.164001 4.21189433,1.5 L5.51045636,2.79600241 L4.21189433,4.09200352 C4.07276268,4.23600364 3.98000826,4.42800381 3.98000826,4.66800402 C3.98000826,4.86000418 4.02638547,5.10000439 4.21189433,5.24400451 C4.49015761,5.58000478 5.0466842,5.58000478 5.3713247,5.24400451 L6.71626391,3.90000335 L8.06120315,5.24400451 C8.33946647,5.53200478 8.89599304,5.53200478 9.22063353,5.24400451 C9.35976516,5.10000439 9.45251962,4.86000418 9.45251962,4.66800402 C9.45251962,4.42800381 9.35976516,4.23600364 9.1742563,4.04400348 Z" transform="translate(8.228 10.492)"/>
      </g>
    </g>
  </g>
</svg>
