<svg xmlns="http://www.w3.org/2000/svg" xmlns:xlink="http://www.w3.org/1999/xlink" width="139" height="67" viewBox="0 0 139 67">
    <defs>
        <linearGradient id="prefix__a" x1="19.797%" x2="88.292%" y1="67.316%" y2="34.942%">
            <stop offset="0%" stop-color="#56CCBD"/>
            <stop offset="100%" stop-color="#9DE3E9"/>
        </linearGradient>
        <linearGradient id="prefix__f" x1="50%" x2="50%" y1="100%" y2="-8.573%">
            <stop offset="0%" stop-color="#3A82FF"/>
            <stop offset="100%" stop-color="#005EFF"/>
        </linearGradient>
        <linearGradient id="prefix__h" x1="50%" x2="50%" y1="0%" y2="100%">
            <stop offset="0%" stop-color="#56CCBD"/>
            <stop offset="100%" stop-color="#4DE6D2"/>
        </linearGradient>
        <linearGradient id="prefix__j" x1="0%" x2="100%" y1="27.06%" y2="72.94%">
            <stop offset="0%" stop-color="#56CCBD"/>
            <stop offset="100%" stop-color="#65BFC1"/>
        </linearGradient>
        <linearGradient id="prefix__l" x1="100%" x2="0%" y1="62.6%" y2="37.4%">
            <stop offset="0%" stop-color="#9DE3E9"/>
            <stop offset="100%" stop-color="#ED83FF"/>
        </linearGradient>
        <path id="prefix__b" d="M.862.134L3.97 1.628l.915.3c1.211.399 2.479.602 3.755.602h9.928c.332 0 .601.269.601.601v11.164c0 .333-.269.602-.601.602H8.74c-1.342 0-2.676-.225-3.944-.665l-1.537-.533-2.925-1.447C.13 12.15 0 11.942 0 11.712V.677C0 .344.27.074.602.074c.09 0 .179.02.26.06z"/>
        <path id="prefix__d" d="M.495.136l1.17.988C2.74 2.032 4.102 2.53 5.51 2.53h13.058c.332 0 .601.269.601.601v11.164c0 .333-.269.602-.601.602H5.509c-1.407 0-2.769-.498-3.844-1.405L.107 12.176c-.068-.057-.107-.14-.107-.23V.367c0-.166.135-.3.3-.3.072 0 .14.025.195.07z"/>
        <path id="prefix__g" d="M3.812 0h15.209c.576 0 1.072.41 1.181.975l2.355 12.21c.126.652-.301 1.283-.954 1.41-.075.014-.15.02-.227.02H1.457c-.664 0-1.203-.538-1.203-1.202 0-.077.007-.153.022-.228L2.631.975C2.74.41 3.235 0 3.812 0z"/>
        <path id="prefix__k" d="M40.872 0l.002.14c0 11.255-9.15 20.378-20.437 20.378S0 11.395 0 .141V0h40.872z"/>
        <path id="prefix__n" d="M.244.255c.837 1.601 1.47 2.658 1.897 3.169.233.279.496.554.789.827.556.52 1.29.808 2.05.808h6.822c.332 0 .601.27.601.602v11.164c0 .332-.27.602-.601.602H5.089c-.782 0-1.533-.305-2.095-.85-.622-.604-1.076-1.088-1.36-1.45-.407-.517-.946-1.498-1.616-2.942V.311c0-.067.054-.12.12-.12.045 0 .086.024.106.064z"/>
    </defs>
    <g fill="none" fill-rule="evenodd">
        <g fill="#390153">
            <path d="M0 0H3.946V1.124H0zM0 2.811H3.946V3.935H0z" transform="translate(134.706 5.06)"/>
        </g>
        <path stroke="url(#prefix__a)" stroke-width="1.548" d="M98.342 27.797h19.012c1.557 0 2.82-1.258 2.82-2.81v-4.794m0-4.415v-5.94c0-1.553 1.261-2.811 2.818-2.811h9.606"/>
        <g>
            <path fill="#D8DDE6" d="M.847 2.53h20.784c.333 0 .602.269.602.601v11.164c0 .333-.27.602-.602.602H.847c-.332 0-.601-.27-.601-.602V3.131c0-.332.269-.601.601-.601z" opacity=".23" transform="translate(0 32.886)"/>
            <path fill="#D8DDE6" d="M3.947.184l2.929 1.543.856.237c1.357.375 2.76.566 4.168.566h9.731c.333 0 .602.269.602.601v11.164c0 .333-.27.602-.602.602H12.92c-2.074 0-4.128-.413-6.04-1.213l-.33-.139-3.116-1.304c-.224-.094-.37-.313-.37-.555V.716c0-.332.27-.602.602-.602.098 0 .194.024.28.07z" transform="translate(0 32.886)"/>
            <g transform="translate(0 32.886) translate(3.065)">
                <mask id="prefix__c" fill="#fff">
                    <use xlink:href="#prefix__b"/>
                </mask>
                <use fill="#D1F5F8" xlink:href="#prefix__b"/>
                <path fill="#000" opacity=".5" style="mix-blend-mode:overlay" d="M-3.665 -8.713H7.047V18.270000000000003H-3.665z" mask="url(#prefix__c)"/>
            </g>
            <path fill="#D8DDE6" d="M12.968 17.146h20.785c.332 0 .601.269.601.601v11.164c0 .333-.27.602-.601.602H12.968c-.332 0-.601-.27-.601-.602V17.747c0-.332.27-.601.601-.601z" opacity=".23" transform="translate(0 32.886)"/>
            <path fill="#D8DDE6" d="M49.332 3.654h20.784c.332 0 .601.27.601.601V15.42c0 .332-.269.601-.601.601H49.332c-.332 0-.602-.269-.602-.601V4.255c0-.332.27-.601.602-.601z" transform="translate(0 32.886)"/>
            <g transform="translate(0 32.886) translate(15.186 14.616)">
                <mask id="prefix__e" fill="#fff">
                    <use xlink:href="#prefix__d"/>
                </mask>
                <use fill="#D1F5F8" xlink:href="#prefix__d"/>
                <path fill="#000" opacity=".5" style="mix-blend-mode:overlay" d="M-6.765 -8.713H3.947V18.270000000000003H-6.765z" mask="url(#prefix__e)"/>
            </g>
        </g>
        <g>
            <path fill="#D8DDE6" d="M1.124 1.124h20.784c.333 0 .602.27.602.602V12.89c0 .332-.27.602-.602.602H1.124c-.332 0-.601-.27-.601-.602V1.726c0-.332.27-.602.601-.602z" transform="translate(67.94 35.415)"/>
            <path fill="#F6F7F9" d="M49.609 0h20.784c.332 0 .601.27.601.602v11.164c0 .332-.269.601-.601.601H49.609c-.332 0-.602-.269-.602-.601V.602c0-.333.27-.602.602-.602z" transform="translate(67.94 35.415)"/>
            <path fill="#D1F5F8" d="M37.488 14.616h20.784c.332 0 .601.27.601.601v11.165c0 .332-.269.601-.601.601H37.488c-.332 0-.602-.27-.602-.601V15.217c0-.332.27-.601.602-.601z" transform="translate(67.94 35.415)"/>
        </g>
        <path fill="url(#prefix__f)" d="M62.126 51.718h15.21c.576 0 1.071.409 1.18.975l2.355 12.21c.126.652-.3 1.283-.953 1.409-.075.014-.152.022-.228.022H59.772c-.665 0-1.203-.539-1.203-1.203 0-.077.007-.153.021-.228l2.355-12.21c.11-.566.605-.975 1.181-.975z"/>
        <g transform="translate(58.314 51.718)">
            <mask id="prefix__i" fill="#fff">
                <use xlink:href="#prefix__g"/>
            </mask>
            <use fill="url(#prefix__h)" xlink:href="#prefix__g"/>
            <path fill="#000" opacity=".2" style="mix-blend-mode:overlay" d="M-16.068 -7.308H27.905999999999995V6.465H-16.068z" mask="url(#prefix__i)"/>
        </g>
        <path fill="url(#prefix__j)" d="M31.122 0h76.935c1.33 0 2.406 1.077 2.406 2.406v50.56c0 1.329-1.077 2.406-2.406 2.406H31.122c-1.329 0-2.406-1.077-2.406-2.406V2.406C28.716 1.077 29.793 0 31.122 0z"/>
        <path fill="#FFF" d="M31.535 5.903L107.645 5.903 107.645 46.658 31.535 46.658z"/>
        <g fill="#390153" transform="translate(58.596 37.945)">
            <ellipse cx="2.255" cy="2.249" rx="2.255" ry="2.249"/>
            <ellipse cx="10.994" cy="2.249" rx="2.255" ry="2.249"/>
            <ellipse cx="19.732" cy="2.249" rx="2.255" ry="2.249"/>
        </g>
        <g transform="translate(49.294 12.086)">
            <mask id="prefix__m" fill="#fff">
                <use xlink:href="#prefix__k"/>
            </mask>
            <use fill="url(#prefix__l)" transform="rotate(-180 20.437 10.26)" xlink:href="#prefix__k"/>
            <ellipse cx="20.296" cy="20.237" fill="#F7F9FC" mask="url(#prefix__m)" rx="7.611" ry="7.589"/>
            <path fill="#390153" d="M33.036 10.215l-8.938 10.03c-.353.645-1.04 1.083-1.83 1.083-1.15 0-2.081-.93-2.081-2.076 0-.69.336-1.3.854-1.678l-.002-.002.064-.04c.053-.036.107-.07.163-.1l11.77-7.217z" mask="url(#prefix__m)" transform="rotate(28 26.611 15.772)"/>
            <path stroke="#000" stroke-dasharray=".902 3.008" stroke-width="1.805" d="M37.49 18.691c0-8.77-7.634-15.88-17.053-15.88S3.383 9.92 3.383 18.69" mask="url(#prefix__m)" opacity=".2"/>
        </g>
        <g transform="translate(126.53 30.356)">
            <mask id="prefix__o" fill="#fff">
                <use xlink:href="#prefix__n"/>
            </mask>
            <use fill="#D1F5F8" xlink:href="#prefix__n"/>
            <path fill="#000" opacity=".5" style="mix-blend-mode:overlay" d="M-10.43 -6.184L4.228 -6.184 4.228 20.8 -10.43 20.8z" mask="url(#prefix__o)"/>
        </g>
        <path fill="#390153" d="M131.323 4.216H136.115V9.838000000000001H131.323z"/>
        <g stroke="#ED83FF" stroke-width=".962">
            <path d="M6.202 1.398L8.7 0M7.611 2.523L8.879 2.523M.564 2.523L1.832 2.523" transform="translate(115.537 15.74)"/>
            <path d="M6.126 5.26L9.14 3.52" transform="translate(115.537 15.74) matrix(1 0 0 -1 0 8.78)"/>
            <path d="M0.454 1.398L2.952 0" transform="translate(115.537 15.74) matrix(-1 0 0 1 3.406 0)"/>
            <path d="M0 5.26L3.014 3.52" transform="translate(115.537 15.74) rotate(180 1.507 4.39)"/>
        </g>
    </g>
</svg>
