<svg xmlns="http://www.w3.org/2000/svg" width="28" height="28" viewBox="0 0 28 28">
    <defs>
        <linearGradient id="prefix__a" x1="0%" x2="100%" y1="0%" y2="100%">
            <stop offset="0%" stop-color="#F885F2"/>
            <stop offset="100%" stop-color="#FF4568"/>
        </linearGradient>
    </defs>
    <path fill="url(#prefix__a)" fill-rule="evenodd" d="M28 33c0-2.761 2.24-5 5-5h7.57l3 5H51c2.76 0 5 2.239 5 5v13c0 2.761-2.24 5-5 5H33c-2.76 0-5-2.239-5-5V33zm23 2c1.66 0 3 1.343 3 3v4c-.84-.628-1.87-1-3-1H33c-1.13 0-2.16.372-3 1v-9c0-1.657 1.34-3 3-3h6.43l3 5H51zm3 10.997C54 44.341 52.66 43 51 43H33c-1.66 0-3 1.343-3 3v5c0 1.657 1.34 3 3 3h18c1.66 0 3-1.343 3-3v-5.003z" transform="translate(-28 -28)"/>
</svg>
