<svg xmlns="http://www.w3.org/2000/svg" width="307" height="267" viewBox="0 0 307 267">
    <defs>
        <linearGradient id="b62wniz2na" x1="0%" x2="100%" y1="3.955%" y2="100%">
            <stop offset="0%" stop-color="#56CCBD"/>
            <stop offset="100%" stop-color="#9794CF"/>
        </linearGradient>
        <linearGradient id="4d0qc503db" x1="19.376%" x2="80.624%" y1="3.955%" y2="100%">
            <stop offset="0%" stop-color="#56CCBD"/>
            <stop offset="100%" stop-color="#9794CF"/>
        </linearGradient>
        <linearGradient id="rks3ahc42c" x1="0%" x2="100%" y1="32.014%" y2="69.531%">
            <stop offset="0%" stop-color="#56CCBD"/>
            <stop offset="100%" stop-color="#9794CF"/>
        </linearGradient>
    </defs>
    <g fill="none" fill-rule="evenodd" transform="translate(-22 -40)">
        <path d="M0 0H350V350H0z"/>
        <path fill="#61C3C0" fill-rule="nonzero" stroke="#5EB7B8" stroke-linecap="round" stroke-linejoin="round" stroke-width="2" d="M168 153L71 153 71 203 97.014 203 168 203z"/>
        <path fill="url(#b62wniz2na)" d="M254.102 50L218.898 50 194 74.898 194 110.102 218.898 135 254.102 135 279 110.102 279 74.898z"/>
        <path fill="#000" fill-rule="nonzero" d="M279 74.516L279 109.968 253.948 135 218.526 135 206 122.484 266.474 62z" opacity=".1"/>
        <path fill="#EDF4FF" fill-rule="nonzero" d="M71.692 227h-11.5c-2.445-.032-4.547 1.745-4.944 4.182L43 300h46l-12.478-68.818c-.432-2.37-2.445-4.112-4.83-4.182z"/>
        <path fill="url(#4d0qc503db)" d="M86 292L50 269.901 54.11 246 80.959 262.458z"/>
        <circle cx="66" cy="201" r="14" fill="url(#b62wniz2na)"/>
        <path fill="url(#rks3ahc42c)" d="M297.286 300h-180.63c-2.817-.002-5.493-1.225-7.327-3.35-1.835-2.125-2.644-4.94-2.217-7.707l15.75-101.722c1.074-7.044 7.177-12.244 14.345-12.221h139.586c7.159.002 13.248 5.19 14.345 12.22l15.75 101.723c.429 2.777-.388 5.602-2.236 7.73-1.847 2.126-4.539 3.342-7.366 3.327z"/>
        <path fill="#000" fill-rule="nonzero" d="M297.425 300H200l45.076-125h32.148c7.057.002 13.06 5.19 14.14 12.22l15.526 101.723c.422 2.777-.383 5.602-2.204 7.73-1.821 2.126-4.475 3.342-7.261 3.327z" opacity=".1"/>
        <path fill="#FCFEFF" fill-rule="nonzero" d="M110 277L307 277 298.752 225 118.248 225z"/>
        <path fill="#EDF4FF" fill-rule="nonzero" d="M222 277L307 277 298.894 225 241.166 225z"/>
        <path fill="#FCFEFF" fill-rule="nonzero" d="M120.38 131.77L101 153h56l-19.38-21.23c-2.195-2.4-5.33-3.77-8.62-3.77-3.29 0-6.425 1.37-8.62 3.77z"/>
        <path fill="#FCFEFF" fill-rule="nonzero" d="M99.334 137.45L85 153h40l-14.39-15.55c-1.431-1.558-3.483-2.45-5.638-2.45-2.156 0-4.208.892-5.638 2.45z"/>
        <path fill="#390153" fill-rule="nonzero" d="M261 91c0-3.314-2.574-6-5.75-6h-34.5c-3.176 0-5.75 2.686-5.75 6s2.574 6 5.75 6h34.5c1.525 0 2.988-.632 4.066-1.757C260.394 94.117 261 92.59 261 91z"/>
        <path fill="#390153" fill-rule="nonzero" d="M323.17 295.28h-9.27c.527-2.008.646-4.1.35-6.154l-15.682-102.44c-1.502-9.96-10.032-17.315-20.055-17.288h-34.979v-31.646h11.66c1.55.009 3.04-.603 4.14-1.7l25.068-25.2c1.112-1.096 1.742-2.594 1.749-4.16V71.06c-.007-1.566-.637-3.064-1.75-4.16l-25.068-25.2c-1.1-1.097-2.59-1.709-4.139-1.7h-35.096c-1.55-.009-3.039.603-4.139 1.7l-25.068 25.2c-1.091 1.105-1.7 2.603-1.69 4.16v35.632c-.01 1.557.599 3.054 1.69 4.16l25.068 25.2c1.117 1.071 2.596 1.678 4.14 1.7h11.66v31.646h-92.23c-10.03-.052-18.575 7.314-20.054 17.288l-1.632 10.256H98.779c-3.22 0-5.83 2.623-5.83 5.86s2.61 5.86 5.83 5.86h17.49l-12.476 80.464c-.324 2.052-.205 4.151.35 6.153h-10.26l-11.66-64.464c-.928-5.2-5.414-8.995-10.67-9.025v-2.637c8.974-2.888 14.517-11.915 13.064-21.273-1.454-9.358-9.471-16.256-18.893-16.256s-17.44 6.898-18.893 16.256c-1.454 9.358 4.09 18.385 13.063 21.273v2.637c-5.247.053-9.72 3.837-10.669 9.025l-11.66 64.464H27.83c-3.22 0-5.83 2.624-5.83 5.86 0 3.237 2.61 5.861 5.83 5.861h295.34c3.22 0 5.83-2.624 5.83-5.86 0-3.237-2.61-5.86-5.83-5.86zM58.262 200.691c.342-3.902 3.594-6.895 7.491-6.895s7.149 2.993 7.491 6.895c.25 2.85-1.12 5.596-3.541 7.099-2.421 1.502-5.479 1.502-7.9 0-2.421-1.503-3.792-4.25-3.541-7.099zm2.332 32.643h10.26l2.682 14.768-14.108-8.205 1.166-6.563zm-3.382 18.812l19.18 11.076 2.624 14.592-23.96-13.83 2.156-11.838zm-4.139 24.086l28.8 16.702.466 2.344H49.4l3.673-19.046zm240.482-46.883l6.354 41.55h-181.6l6.413-41.55h168.833zm-71.008-103.32L200.86 104.29V73.463l21.687-21.742h30.607l21.453 21.742v30.826l-21.453 21.742h-30.607zm-83.017 55.088h138.983c4.253-.018 7.876 3.1 8.512 7.326l4.49 29.302H126.47l4.489-29.302c.663-4.235 4.305-7.348 8.57-7.326zM301.833 293.99c-.736.84-1.802 1.31-2.915 1.29H119.067c-1.107-.01-2.161-.476-2.915-1.29-.72-.862-1.04-1.993-.874-3.106l1.282-8.087h184.923l1.224 7.911c.22 1.17-.103 2.378-.874 3.282z"/>
        <path fill="#390153" fill-rule="nonzero" d="M184.996 251.408l-4.543 4.208c-2.115 2.256-1.973 5.619.326 7.719 2.299 2.1 5.98 2.23 8.45.298l8.961-8.188c2.413-2.217 2.413-5.799 0-8.017l-9.522-8.756c-1.579-1.442-3.88-2.005-6.036-1.477-2.157.528-3.841 2.066-4.419 4.037-.578 1.97.039 4.072 1.617 5.514l5.166 4.662zM141.996 252.103l-4.543 4.41c-1.776 1.457-2.55 3.744-2.003 5.92.547 2.178 2.322 3.878 4.595 4.402 2.274.523 4.662-.218 6.183-1.918l8.962-8.583c2.413-2.324 2.413-6.078 0-8.403l-9.522-9.178c-2.44-2.337-6.397-2.337-8.838 0-2.44 2.337-2.44 6.126 0 8.463l5.166 4.887zM224.996 251.408l-4.543 4.208c-2.115 2.256-1.973 5.619.326 7.719 2.299 2.1 5.98 2.23 8.45.298l8.961-8.188c2.413-2.217 2.413-5.799 0-8.017l-9.522-8.756c-1.579-1.442-3.88-2.005-6.036-1.477-2.157.528-3.841 2.066-4.419 4.037-.578 1.97.039 4.072 1.617 5.514l5.166 4.662zM266.996 251.408l-4.543 4.208c-2.115 2.256-1.973 5.618.326 7.719 2.299 2.1 5.98 2.23 8.45.298l8.961-8.188c2.413-2.217 2.413-5.8 0-8.017l-9.522-8.756c-2.44-2.23-6.397-2.23-8.838 0-2.44 2.23-2.44 5.844 0 8.074l5.166 4.662zM73.747 173c3.173 0 5.746-2.634 5.746-5.882v-6.353h89.76c3.174 0 5.747-2.634 5.747-5.883 0-3.248-2.573-5.882-5.747-5.882h-8.504l-17.527-20.118c-3.276-3.749-7.959-5.889-12.872-5.882-4.914-.007-9.597 2.133-12.873 5.882l-3.447 3.942c-5.626-4.4-13.578-3.792-18.504 1.411L82.71 149h-8.964c-3.174 0-5.747 2.634-5.747 5.882v12.236c0 3.248 2.573 5.882 5.747 5.882zm52.35-36.294c1.087-1.232 2.631-1.937 4.253-1.941 1.641-.013 3.21.693 4.31 1.94L145.348 149h-16.952l-6.494-7.47 4.195-4.824zm-21.951 5.353c.976-1.118 1.838-1.118 2.873 0l5.746 6.941h-14.94l6.32-6.941zM186.25 159h12.5c3.452 0 6.25-2.686 6.25-6s-2.798-6-6.25-6h-12.5c-3.452 0-6.25 2.686-6.25 6s2.798 6 6.25 6zM175.725 205h67.55c3.162 0 5.725-2.686 5.725-6s-2.563-6-5.725-6h-67.55c-3.162 0-5.725 2.686-5.725 6s2.563 6 5.725 6z"/>
    </g>
</svg>
