<svg xmlns="http://www.w3.org/2000/svg" xmlns:xlink="http://www.w3.org/1999/xlink" width="184" height="117" viewBox="0 0 184 117">
    <defs>
        <linearGradient id="prefix__c" x1="32.39%" x2="72.16%" y1="22.815%" y2="80.64%">
            <stop offset="0%" stop-color="#FFD486"/>
            <stop offset="100%" stop-color="#FFB32A"/>
        </linearGradient>
        <linearGradient id="prefix__d" x1="14.45%" x2="87.18%" y1="2.192%" y2="100%">
            <stop offset="0%" stop-color="#EDF3FF"/>
            <stop offset="100%" stop-color="#CAD3E4"/>
        </linearGradient>
        <linearGradient id="prefix__e" x1="50%" x2="50%" y1="100%" y2="0%">
            <stop offset="0%" stop-color="#E8EEF8" stop-opacity="0"/>
            <stop offset="100%" stop-color="#DEE9FE"/>
        </linearGradient>
        <linearGradient id="prefix__g" x1="24.469%" x2="78.887%" y1="21.327%" y2="83.872%">
            <stop offset="0%" stop-color="#75A8FF"/>
            <stop offset="100%" stop-color="#4D82FF"/>
        </linearGradient>
        <path id="prefix__a" d="M43.77 0L87.54 25.379 87.54 76.137 43.77 101.516 0 76.137 0 25.379z"/>
        <path id="prefix__f" d="M40.735 0L76.013 20.455 76.013 61.365 40.735 81.821 5.458 61.365 5.458 20.455z"/>
    </defs>
    <g fill="none" fill-rule="evenodd">
        <g transform="translate(0 3) translate(52.798)">
            <mask id="prefix__b" fill="#fff">
                <use xlink:href="#prefix__a"/>
            </mask>
            <path stroke="#4176E9" stroke-width="2.308" d="M88.694 76.802L43.77 102.85-1.154 76.802V24.714L43.77-1.334l44.924 26.048v52.088z"/>
            <path fill="#4176E9" d="M-25.239 12.069L38.165 16.51 43.563 113.004 -25.239 75.079z" mask="url(#prefix__b)" transform="rotate(180 9.162 62.536)"/>
            <path fill="#4176E9" d="M43.809 -10.753L107.212 -6.311 112.61 90.182 43.809 52.258z" mask="url(#prefix__b)"/>
        </g>
        <path fill="url(#prefix__c)" d="M45.187 83.061L58.268 90.645 58.268 105.814 45.187 113.398 32.107 105.814 32.107 90.645z" transform="translate(0 3)"/>
        <path fill="url(#prefix__d)" d="M167.423 13.63L183.557 22.985 183.557 41.695 167.423 51.05 151.289 41.695 151.289 22.985z" transform="translate(0 3)"/>
        <path fill="url(#prefix__e)" d="M21.013 40.889L42.027 53.073 42.027 77.441 21.013 89.625 0 77.441 0 53.073z" transform="translate(0 3)"/>
        <g transform="translate(0 3) translate(55.937 10.23)">
            <mask id="prefix__h" fill="#fff">
                <use xlink:href="#prefix__f"/>
            </mask>
            <use fill="url(#prefix__g)" xlink:href="#prefix__f"/>
            <g fill="#FFF" fill-rule="nonzero" mask="url(#prefix__h)">
                <g>
                    <path d="M36.53 8.282V6.785l2.072 1.996c.518.498 1.555.498 2.16 0 .258-.25.431-.666.431-.998 0-.333-.173-.748-.432-.998l-4.663-4.572c-.518-.499-1.468-.499-2.073 0l-5.008 4.49c-.26.249-.432.581-.432.997 0 .332.086.748.345.997.518.582 1.555.582 2.16.084l2.59-2.245v1.746c0 5.653-4.75 10.309-10.709 10.309h-5.095c-6.995 0-12.954 5.154-13.644 11.888v.166h-.173C1.64 31.31 0 33.472 0 35.883c0 3.076 2.59 5.487 5.7 5.487 3.195 0 5.7-2.494 5.7-5.487 0-2.328-1.555-4.406-3.887-5.238l-.173-.083v-.166c.605-5.154 5.182-9.062 10.536-9.062l5.009.083c7.6 0 13.645-5.902 13.645-13.135zM8.377 35.966c0 1.413-1.21 2.66-2.764 2.66-1.468 0-2.763-1.163-2.763-2.66 0-1.413 1.209-2.66 2.763-2.66 1.555.083 2.764 1.247 2.764 2.66zM33.424 40.513l-2.38-2.405 2.38-2.406c.255-.267.425-.624.425-1.07 0-.445-.085-.801-.425-1.068-.51-.624-1.53-.624-2.125 0l-2.464 2.494-2.464-2.494c-.595-.535-1.53-.535-2.124 0-.255.267-.425.712-.425 1.069 0 .356.17.802.425 1.07l2.379 2.405-2.38 2.405c-.594.535-.594 1.604 0 2.228.51.624 1.53.624 2.125 0l2.464-2.495 2.464 2.495c.51.534 1.53.534 2.125 0 .595-.624.595-1.604 0-2.228zM16.88 7.441l-2.389-2.385 2.39-2.384c.597-.53.597-1.59 0-2.208-.512-.619-1.536-.619-2.134 0l-2.474 2.473L9.883.552c-.597-.53-1.536-.53-2.133 0-.512.618-.512 1.59 0 2.208l2.39 2.385-2.39 2.384c-.256.265-.427.619-.427 1.06 0 .353.086.795.427 1.06.512.618 1.536.618 2.133 0l2.475-2.473 2.475 2.473c.512.53 1.536.53 2.133 0 .256-.265.427-.707.427-1.06 0-.441-.171-.795-.512-1.148z" transform="translate(20.139 19.306)"/>
                </g>
            </g>
        </g>
    </g>
</svg>
