<svg xmlns="http://www.w3.org/2000/svg" width="28" height="21" viewBox="0 0 28 21">
    <defs>
        <linearGradient id="prefix__a" x1="0%" x2="100%" y1="21.878%" y2="78.122%">
            <stop offset="0%" stop-color="#00EA72"/>
            <stop offset="100%" stop-color="#00F8CF"/>
        </linearGradient>
    </defs>
    <path fill="url(#prefix__a)" fill-rule="evenodd" d="M29 28c.552 0 1 .45 1 1s-.448 1-1 1H3c-.552 0-1-.45-1-1s.448-1 1-1zM27.331 9.26c.411-.37 1.043-.34 1.412.07.37.41.336 1.04-.074 1.41l-10 9c-.395.36-1 .34-1.376-.03L11 13.41l-6.293 6.3c-.39.39-1.024.39-1.414 0-.391-.39-.391-1.03 0-1.42l7-7c.39-.39 1.024-.39 1.414 0l6.329 6.33z" transform="translate(-2 -9)"/>
</svg>
