<svg xmlns="http://www.w3.org/2000/svg" width="29" height="23" viewBox="0 0 29 23">
    <defs>
        <linearGradient id="prefix__a" x1="0%" x2="100%" y1="18.549%" y2="81.451%">
            <stop offset="0%" stop-color="#00F091"/>
            <stop offset="100%" stop-color="#009EFB"/>
        </linearGradient>
    </defs>
    <path fill="url(#prefix__a)" fill-rule="evenodd" d="M54 37.17V33c0-1.66-1.343-3-3-3H32c-1.657 0-3 1.34-3 3v14.17c-1.165.41-2 1.52-2 2.83 0 1.66 1.343 3 3 3h17c.107 0 .211-.02.308-.05.174.03.354.05.538.05H53c1.657 0 3-1.34 3-3V40c0-1.31-.835-2.42-2-2.83zM52 37v-4c0-.55-.448-1-1-1H32c-.552 0-1 .45-1 1v14h13.5c.122 0 .238.02.346.06V40c0-1.66 1.343-3 3-3H52zm-6.983 14c-.111-.31-.171-.65-.171-1v-1.06c-.108.04-.224.06-.346.06H30c-.552 0-1 .45-1 1s.448 1 1 1h15.017zM53 51h-5.154c-.552 0-1-.45-1-1V40c0-.55.448-1 1-1H53c.552 0 1 .45 1 1v10c0 .55-.448 1-1 1z" transform="translate(-27 -30)"/>
</svg>
