<svg xmlns="http://www.w3.org/2000/svg" width="427" height="359" viewBox="0 0 427 359">
    <g fill="none" fill-rule="evenodd" transform="translate(1 1)">
        <ellipse cx="211.5" cy="4.5" fill="#F0F0F0" rx="211.5" ry="4.5" transform="translate(3 349)"/>
        <g transform="translate(78 199)">
            <rect width="348" height="6.09" fill="#282F80" rx="3.045"/>
            <path fill="#F0F0F0" d="M319.127 6.09h4.559v144.63c0 1.26-1.021 2.28-2.28 2.28s-2.28-1.02-2.28-2.28V6.09zM24.314 6.09h4.56v144.63c0 1.26-1.021 2.28-2.28 2.28s-2.28-1.02-2.28-2.28V6.09zM53.188 6.09h4.559v144.63c0 1.26-1.02 2.28-2.28 2.28-1.259 0-2.28-1.02-2.28-2.28V6.09zM290.253 6.09h4.56v144.63c0 1.26-1.021 2.28-2.28 2.28-1.26 0-2.28-1.02-2.28-2.28V6.09z"/>
        </g>
        <g transform="translate(111 93)">
            <path fill="#D8D8D8" fill-rule="nonzero" d="M75.467 84.043c.21-.009.386.154.395.363.493 11.809 4.58 17.684 12.27 17.806l.247.002h3.035c1.047 0 1.896.848 1.896 1.893 0 1.004-.782 1.825-1.772 1.889l-.124.004h-50.07c-1.047 0-1.896-.847-1.896-1.893 0-1.003.783-1.825 1.772-1.889l.125-.004h3.034c7.851 0 12.02-5.873 12.518-17.808.009-.21.185-.372.395-.363.209.009.372.185.363.394l-.037.753c-.525 9.373-3.421 15.077-8.683 17.025h34.889c-5.184-1.919-8.071-7.483-8.658-16.608l-.025-.417-.037-.753c-.009-.209.154-.385.363-.394z"/>
            <rect width="132" height="84.8" fill="#FFF" stroke="#F0F0F0" stroke-linecap="round" stroke-linejoin="round" rx="16"/>
            <path fill="#F0F0F0" d="M0 68.143h132v.657c0 8.837-7.163 16-16 16H16c-8.837 0-16-7.163-16-16v-.657z"/>
            <ellipse cx="66" cy="76.471" stroke="#D8D8D8" stroke-linecap="round" stroke-linejoin="round" rx="3.793" ry="3.786"/>
        </g>
        <g transform="translate(127 93)">
            <path fill="#FF9E8B" d="M50.182 105.588H34.215l1.52-3.038c12.673-4.05 20.783-6.076 24.331-6.076l-.76 9.114h-9.124z"/>
            <path fill="#FFC33F" d="M145.983 47.877c19.486-.482 37.257 10.634 37.257 34.939 0 16.203-1.521 34.432-4.562 54.686H115.57V97.247c-4.477 5.458-7.406 8.237-13.349 8.338l-53.56.003c1.014-4.557 3.041-8.101 6.083-10.633 20.275-2.026 26.104-5.312 41.818-9.86 16.727-23.808 31.68-36.214 49.421-37.218z"/>
            <path stroke="#EBA100" stroke-linecap="round" stroke-linejoin="round" d="M115.57 97.233L122.413 87.36"/>
            <path fill="#2B46AA" d="M72.992 158.755L65.388 236.987 86.678 236.987 98.843 158.755z"/>
            <path fill="#3F65F4" d="M117.09 124.577l-60.33 17.687c-6.054 1.775-10.916 6.302-13.117 12.214l-30.717 82.51h28.892l22.81-60.004 52.463-22.786v-29.621z"/>
            <path stroke="#282F80" stroke-dasharray="5" stroke-linecap="round" stroke-linejoin="round" stroke-width=".5" d="M107.967 145.084l-51.703 16.71-24.33 62.281"/>
            <path fill="#282F80" d="M70.711 242.304L82.876 242.304 82.876 258.254 60.066 258.254zM19.769 242.304L33.455 242.304 33.455 258.254 0 258.254z"/>
            <path stroke="#FFC33F" stroke-linecap="round" stroke-linejoin="round" d="M13.686 244.582L17.488 249.899M9.884 247.621L13.686 252.937M64.628 248.38L66.909 250.659M63.107 250.659L65.388 252.937"/>
            <rect width="24.331" height="35.318" x="136.86" y="7.609" fill="#FF9E8B" rx="12.165"/>
            <path fill="#282F80" d="M156.658 4.05c-1.94-2.4-4.336-2.232-7.184.501-5.368-2.518-9.066-1.246-11.094 3.817-3.548 3.545-4.44 6.269-2.673 8.173 1.981 1.38 2.737 2.34 2.269 2.88-.704.809-.691 1.727 1.165 6.539 1.857 4.812-5.23 11.279-4.965 15.062.265 3.783 2.156 3.65-1.036 6.915-3.19 3.264 1.014 9.053 3.283 8.894 2.269-.158 2.151-1.718-.204 2.628-2.356 4.346-1.766 7.346.635 9.08.325.234 2.126 4.352 4.687 4.713 1.041.147 4.45-.1 4.445-1.833-.011-4.537 5.52 1.378 8.503 1.69 1.242-3.9 5.043-3.063 7.425-2.803 2.386.261 6.403 2.714 7.092 3.312 3.653-.255 2.449-5.394 2.768-4 .72-.132.314 3.123.971 2.977 2.356-.52 4.577 1.703 5.907-.471 1.141-1.865.81-5.854.756-6.614-.3-4.287-1.43-6.724-3.392-7.31 3.587-3.039 4.724-4.892 3.41-5.56-1.97-1.004-2.4-1.734-.211-3.027 2.19-1.294 3.297-1.751 1.493-5.807-1.803-4.055-3.959-7.706-2.632-10.46 1.327-2.754-2.287-5.543-1.77-9 .518-3.458 1.301-3.132.034-4.945-1.266-1.812-2.208-4.407-1.558-5.973.65-1.566-2.242.537-2.945 1.346-.704.81.253-7.24-4.398-3.114 1.424-1.367 1.732-2.402.923-3.106-1.214-1.055-2.277-5.543-5.952-3.766-2.375-1.354-4.292-1.6-5.752-.738z"/>
            <path stroke="#4B52A4" stroke-linecap="round" stroke-linejoin="round" stroke-width=".5" d="M158.205 11.027c1.027 4.557-.386 8.101-4.238 10.633M162.652 19.002c-1.364 1.013-1.774 1.772-1.228 2.278.546.507 1.228.507 2.047 0-.273 1.013-.955 2.026-2.047 3.039M166.893 17.103c-.254 2.785-.887 4.557-1.901 5.317M172.215 58.497c-.254 2.785-.887 4.558-1.9 5.317M156.248 53.18c-.254 2.786-.887 4.558-1.9 5.317M171.835 20.52c-1.52 1.52-1.901 2.786-1.14 3.799 1.14 1.519 1.52 2.278.38 4.936-1.141 2.659 4.181 2.28 5.322 7.216M155.868 44.138c.76-.238 1.394.118 1.9 1.068M159.67 40.854c2.027-1.793 3.04-1.793 3.04 0 0 2.69-2.28 5.38-1.52 7.3.76 1.922 4.182 1.537 4.562 7.685M170.694 44.826c-1.267.506-1.9 1.266-1.9 2.278 0 1.52 4.942 1.14 4.942 2.279 0 1.14-2.281 3.418-2.281 4.557M150.545 25.988c-3.548-.501-5.322.25-5.322 2.255 0 3.008 3.041 4.135 2.661 7.143-.253 2.005-1.14 3.759-2.66 5.262M138.544 38.37c-1.765 3.038-2.143 5.063-1.135 6.076 1.513 1.52 3.025-.76 4.159 2.279 1.134 3.038-2.268 2.658-1.512 7.975M141.802 9.887c-.507 3.039-1.394 5.064-2.662 6.077M149.785 12.166c1.014 0 1.774-.253 2.281-.76.254-2.531 1.647-3.797 4.182-3.797M164.612 12.166c1.52-1.013 2.28-1.772 2.28-2.279M160.05 30.395c-3.042 5.316-5.956 8.355-8.744 9.114M149.32 49.763c.226 3.291 0 5.317-.675 6.076M146.364 52.8c-.254 1.52-1.268 2.533-3.042 3.04M172.595 39.889c1.014.76 1.774 1.14 2.281 1.14M168.033 27.357c-1.69 3.291-1.971 5.443-.845 6.456 1.127 1.012 1.127 2.405 0 4.177M146.744 15.964c.76.76.38 2.025-1.14 3.797"/>
            <path fill="#3F65F4" d="M14.446 227.873L10.645 237.747 43.339 237.747 46.38 229.392z"/>
            <path stroke="#282F80" stroke-linecap="round" stroke-linejoin="round" stroke-width=".5" d="M15.587 227.493L44.479 229.012M65.008 232.05L88.579 232.81"/>
            <path fill="#2B46AA" d="M64.628 232.43L63.107 237.747 88.198 237.747 89.719 233.189z"/>
            <path stroke="#EBA100" stroke-linecap="round" stroke-linejoin="round" d="M96.562 85.841L95.802 90.398M98.083 85.081L99.603 88.119M58.545 94.955c-2.534 4.05-3.801 7.595-3.801 10.633"/>
        </g>
        <g transform="translate(346 160)">
            <path fill="#CF4634" d="M2.458 19.882H16.09c1.104 0 2 .896 2 2v8.301c0 4.87-3.947 8.817-8.817 8.817S.458 35.053.458 30.183v-8.3c0-1.105.895-2 2-2z"/>
            <path fill="#A13426" d="M12.242 24.47c1.23 0 2.226 1.028 2.226 2.295 0 .884-.486 1.652-1.197 2.035.055.268.084.547.084.832 0 2.218-1.744 4.015-3.895 4.015-2.152 0-3.895-1.797-3.895-4.015 0-.285.028-.564.084-.833-.712-.382-1.197-1.15-1.197-2.034 0-1.267.996-2.294 2.225-2.294.859 0 1.603.5 1.975 1.233.26-.056.53-.086.808-.086.277 0 .547.03.808.086.371-.733 1.116-1.233 1.974-1.233z"/>
            <ellipse cx="19.29" cy="27.529" stroke="#CF4634" stroke-linecap="round" stroke-linejoin="round" stroke-width="2" rx="3.71" ry="3.824"/>
            <path stroke="#E6E6E6" stroke-linecap="round" stroke-linejoin="round" stroke-width=".75" d="M6.93 17.206C8.783 13 8.783 9.94 6.93 8.029 5.073 6.118 5.815 3.441 9.154 0M12.494 4.588c-1.855.765-2.226 2.486-1.113 5.162 1.113 2.676 1.113 5.162 0 7.456"/>
        </g>
        <g transform="translate(194 154)">
            <rect width="25.886" height="13.708" x="59.751" y="127.938" fill="#F0F0F0" stroke="#F0F0F0" stroke-linecap="round" stroke-linejoin="round" rx="6.854"/>
            <path fill="#E6E6E6" d="M68.887 141.646h7.614v6.139c0 1.656-1.343 3-3 3h-1.614c-1.657 0-3-1.344-3-3v-6.139z"/>
            <path fill="#F0F0F0" d="M71.933 150.785H73.456V179.72299999999998H71.933z"/>
            <path stroke="#F0F0F0" stroke-linecap="round" stroke-linejoin="round" d="M90.967 198c0-10.094-8.181-18.277-18.273-18.277S54.421 187.906 54.421 198h36.546z"/>
            <path fill="#F0F0F0" d="M88.683 0C57.467 0 53.66 19.038 53.66 41.885 53.66 64.73 32.342 75.392 9.5 79.2c-22.84 3.808-4.567 55.592 55.58 55.592 60.148 0 68.523-41.123 68.523-67.015C133.603 41.885 119.9 0 88.683 0z"/>
            <path fill="#E6E6E6" d="M132.806 56.266c.535 4.04.797 7.929.797 11.51 0 25.893-8.375 67.016-68.523 67.016-8.761 0-16.634-1.098-23.621-2.988 19.371-12.37 32.828-16.197 40.371-11.48 12.182 7.614 35.023-3.047 35.023-29.7 0-20.258 11.874-26.44 15.902-34.257z"/>
        </g>
        <g transform="translate(90 73)">
            <path fill="#3F65F4" d="M83.376 41.278C68.722 40.772 55.836 47.6 44.72 61.76c-8.59-8.092-15.665-15.93-21.223-23.517H8.337C25.519 67.071 37.646 81.485 44.72 81.485c7.074 0 11.622-3.035 13.643-9.104v15.173H119c-3.304-19.608-7.094-31.746-11.37-36.414-5.558-6.07-13.643-9.357-24.254-9.862z"/>
            <path fill="#FF9E8B" d="M12.885 35.967L11.369 33.691 0 29.898 1.408 28.573 17.433 30.657 18.191 35.967zM79.586 31.416L78.828 40.519 86.408 40.519 85.65 31.416z"/>
            <rect width="24.255" height="30.345" x="71.248" y="5.623" fill="#FF9E8B" rx="12.127"/>
            <path fill="#224DEC" d="M72.006 39.002c-2.02 3.54-2.274 5.31-.758 5.31H93.23c1.516 0 1.516-5.31 0-5.31-.66 0-3.91.758-9.749.758-2.064 0-5.889-.252-11.474-.758z"/>
            <path fill="#282F80" d="M72.006 27.623c-1.446-1.207-9.853-6.828-3.031-10.621-4.043-4.552-2.78-7.586 3.79-9.104.505-6.574 4.294-8.597 11.369-6.069 11.412-3.357 15.96-2.093 13.643 3.794-3.475 8.83-6.064 10.62-13.643 9.103-5.053-1.012-7.833 1.517-8.338 7.586-.505 2.529-1.263 2.529-2.274 0-1.516-3.793-3.032-.758-1.516 5.31z"/>
            <ellipse cx="93.229" cy="20.795" stroke="#FFC33F" stroke-linecap="round" stroke-linejoin="round" rx="4.548" ry="4.552"/>
            <ellipse cx="82.618" cy="20.795" stroke="#FFC33F" stroke-linecap="round" stroke-linejoin="round" rx="4.548" ry="4.552"/>
            <path stroke="#282F80" stroke-linecap="round" stroke-linejoin="round" d="M81.86 29.14c2.526 1.517 4.548 1.517 6.064 0M81.102 20.795c1.213-1.012 2.223-1.012 3.032 0M91.713 20.795c1.213-1.012 2.224-1.012 3.032 0M104.978 67.45L108.768 86.416M58.363 72.381L59.5 69.726"/>
            <path stroke="#224DEC" stroke-linecap="round" stroke-linejoin="round" d="M75.796 45.071L74.28 47.347M81.86 45.071L81.86 47.347M88.682 45.071L90.955 47.347"/>
            <path stroke="#282F80" stroke-linecap="round" stroke-linejoin="round" d="M25.771 41.278L14.401 41.278"/>
        </g>
        <g transform="translate(317 40)">
            <path fill="#FF7702" d="M0 6c0-3.314 2.686-6 6-6h49c3.314 0 6 2.686 6 6v25.516c0 3.313-2.686 6-6 6H13.725l-9.88 9.92c-.878.881-2.302.884-3.183.007C.238 47.021 0 46.447 0 45.85V6z"/>
            <ellipse cx="14.488" cy="19.141" fill="#FFF3D8" rx="3.05" ry="3.063"/>
            <ellipse cx="27.45" cy="19.141" fill="#FFF3D8" rx="4.575" ry="4.594"/>
            <ellipse cx="43.462" cy="19.141" fill="#FFF3D8" rx="6.1" ry="6.125"/>
            <path fill="#C35A00" d="M13.725 37.516L9.912 41.344 0 37.516z"/>
        </g>
        <g>
            <path stroke="#282F80" stroke-linecap="round" stroke-linejoin="round" d="M2.447 71.532L48.534 71.532 35.86 120.903 13.969 120.903z" transform="translate(19 231)"/>
            <path fill="#282F80" d="M48.534 71.532l-12.674 49.37h-5.4c-2.97-4.463-2.706-8.363.792-11.7 7.777-7.42 7.489-5.707 4.032-23.4-1.222-6.255-.149-11.012 3.218-14.271l10.032.001z" transform="translate(19 231)"/>
            <path stroke="#E6E6E6" stroke-linecap="round" stroke-linejoin="round" d="M5.904.86C1.295-2.28-3.314 3.143 3.31 17.697s-.864 14.84-1.728 22.26c-.864 7.42 14.402 6.278 15.267 19.405.864 13.127 13.538-3.139 10.945-10.273-2.592-7.135-9.793-5.423-4.32-16.838 5.472-11.415-4.033-7.42-5.761-16.552C15.985 6.567 10.513 4 5.904.86zM7.632 9.992c6.145 11.795 10.082 26.635 11.81 44.519" transform="translate(19 231)"/>
            <path fill="#3F65F4" d="M25.779 65.64c4.32.857 5.76-4.28 8.93-9.132 3.168-4.851 4.032-5.136 7.488-8.276 3.457-3.139-2.016-8.56 2.305-15.125 4.32-6.563 10.081-13.698 7.777-18.55-2.304-4.85-18.723 1.999-22.18 17.124-3.456 15.125-12.385 10.273-12.385 18.834 0 8.562 3.744 14.27 8.065 15.125z" transform="translate(19 231)"/>
            <path fill="#2B46AA" d="M51.07 22.812c-1.689 3.32-4.323 6.884-6.568 10.295-4.321 6.564 1.152 11.986-2.305 15.125-3.456 3.14-4.32 3.425-7.489 8.276-3.168 4.852-4.608 9.989-8.93 9.132-.192-.038-.384-.086-.575-.143.797-3.895 3.197-8.413 7.2-13.555 7.778-9.988 5.474-12.27 5.474-15.125 0-2.686 6.123-11.944 13.088-13.976z" transform="translate(19 231)"/>
            <path stroke="#2B46AA" stroke-linecap="round" stroke-linejoin="round" d="M25.49 59.362c4.417-18.074 11.138-31.296 20.164-39.667" transform="translate(19 231)"/>
        </g>
        <path stroke="#E6E6E6" stroke-dasharray="7" stroke-linecap="round" stroke-linejoin="round" d="M27.36 118.642V79.645c0-8.284 6.715-15 15-15h114.397c8.284 0 15-6.716 15-15v-8.787c0-8.284 6.715-15 15-15h8.56"/>
        <g stroke="#E6E6E6" stroke-linecap="round" stroke-linejoin="round" transform="translate(202.156)">
            <rect width="69.919" height="51.107" rx="4.8"/>
            <ellipse cx="6.688" cy="6.693" rx="1.824" ry="1.825"/>
            <ellipse cx="12.768" cy="6.693" rx="1.824" ry="1.825"/>
            <ellipse cx="18.848" cy="6.693" rx="1.824" ry="1.825"/>
            <path d="M4.864 13.385L65.055 13.385"/>
            <rect width="12.16" height="19.469" x="4.864" y="17.644" rx="1.6"/>
            <rect width="12.16" height="19.469" x="20.672" y="17.644" rx="1.6"/>
            <rect width="12.16" height="19.469" x="36.479" y="17.644" rx="1.6"/>
            <rect width="12.16" height="19.469" x="52.287" y="17.644" rx="1.6"/>
        </g>
        <g stroke="#E6E6E6" stroke-linecap="round" stroke-linejoin="round" transform="translate(0 127.008)">
            <rect width="55.935" height="40.886" rx="3.84"/>
            <ellipse cx="5.35" cy="5.354" rx="1.459" ry="1.46"/>
            <ellipse cx="10.214" cy="5.354" rx="1.459" ry="1.46"/>
            <ellipse cx="15.078" cy="5.354" rx="1.459" ry="1.46"/>
            <path d="M3.891 10.708L52.044 10.708"/>
            <rect width="9.728" height="15.576" x="3.891" y="14.115" rx="1.28"/>
            <rect width="35.719" height="15.576" x="16.537" y="14.115" rx="1.28"/>
        </g>
        <g transform="translate(18.24 2.282)">
            <rect width="87.398" height="63.884" x="32.679" y="29.661" fill="#282F80" rx="6"/>
            <ellipse cx="41.039" cy="38.026" stroke="#4B52A4" stroke-linecap="round" stroke-linejoin="round" rx="2.28" ry="2.282"/>
            <ellipse cx="48.639" cy="38.026" stroke="#4B52A4" stroke-linecap="round" stroke-linejoin="round" rx="2.28" ry="2.282"/>
            <ellipse cx="56.239" cy="38.026" stroke="#4B52A4" stroke-linecap="round" stroke-linejoin="round" rx="2.28" ry="2.282"/>
            <rect width="75.239" height="31.942" x="38.759" y="52.476" fill="#4B52A4" rx="2"/>
            <path fill="#6C72BC" fill-rule="nonzero" d="M76.378 60.842h.76c.21 0 .38-.17.38-.38v-.38c0-.224-.098-.437-.27-.582-.17-.144-.396-.206-.617-.168-.374.06-.633.412-.633.79v.34c0 .21.17.38.38.38zm-1.784 13.69h-.896c-.131 0-.253.067-.322.178l-1.062 1.7c-.222.356-.114.826.242 1.048.356.223.825.115 1.047-.242l1.313-2.103c.073-.117.077-.265.01-.385-.067-.121-.194-.196-.332-.196zm7.424-4.39l-3.42-5.323c-.069-.107-.186-.172-.313-.174-.127-.006-.249.056-.319.163l-1.159 1.672c-.059.086-.15.144-.254.16-.103.016-.208-.012-.29-.076l-.412-.319c-.151-.117-.366-.104-.502.032l-3.8 3.803c-.108.108-.141.272-.082.414.059.143.198.235.352.235h9.88c.138 0 .266-.077.332-.199.067-.122.061-.27-.013-.387zm-10.58-4.356c0 .629.512 1.14 1.14 1.14.63 0 1.14-.511 1.14-1.14 0-.63-.51-1.141-1.14-1.141-.628 0-1.14.512-1.14 1.14zm12.92-3.043v9.887c0 .63-.511 1.141-1.14 1.141h-12.92c-.628 0-1.14-.512-1.14-1.14v-9.888c0-.628.512-1.14 1.14-1.14h12.92c.629 0 1.14.512 1.14 1.14zM81.203 76.41c.144.23.154.52.026.76-.127.24-.373.394-.644.403-.271.01-.527-.126-.671-.357L78.6 75.113c-.074-.117-.077-.265-.01-.385.067-.121.194-.196.332-.196h.896c.13 0 .253.067.322.178l1.062 1.7z"/>
            <path stroke="#6C72BC" stroke-linecap="round" stroke-linejoin="round" d="M107.918 65.405L110.958 68.447 107.918 71.49"/>
            <path stroke="#6C72BC" stroke-linecap="round" stroke-linejoin="round" d="M41.799 65.405L44.839 68.447 41.799 71.49" transform="matrix(-1 0 0 1 86.638 0)"/>
            <path stroke="#4B52A4" stroke-linecap="round" stroke-linejoin="round" d="M38.759 46.392L113.998 46.392"/>
            <path stroke="#FFC33F" stroke-linecap="round" stroke-linejoin="round" stroke-width="2" d="M34.199 15.211L25.079 0M23.56 22.055L8.36 10.647M19.76 34.224L.267 29.946"/>
        </g>
    </g>
</svg>
